<svg width="168" height="52" viewBox="0 0 168 52" fill="none" xmlns="http://www.w3.org/2000/svg">
<path d="M18.1705 27.2646V27.7964C17.6046 27.8496 17.1713 27.9825 16.8707 28.1952C16.5701 28.3902 16.3667 28.7093 16.2606 29.1525C16.1722 29.578 16.128 30.1896 16.128 30.9873V46.1707C15.9688 46.153 15.792 46.1441 15.5974 46.1441C15.4206 46.1441 15.2261 46.153 15.0139 46.1707L3.63408 30.6682V42.1555C3.63408 43.0064 3.68713 43.6711 3.79323 44.1498C3.89934 44.6107 4.12923 44.9475 4.48292 45.1602C4.85429 45.3552 5.41134 45.4882 6.15408 45.5591V46.0909C5.81808 46.0555 5.38481 46.0377 4.85429 46.0377C4.32376 46.02 3.81976 46.0111 3.34229 46.0111C2.91787 46.0111 2.4846 46.02 2.0425 46.0377C1.61808 46.0377 1.26439 46.0555 0.981445 46.0909V45.5591C1.56502 45.4882 1.99829 45.3552 2.28123 45.1602C2.58187 44.9652 2.77639 44.6461 2.86481 44.203C2.97092 43.7598 3.02397 43.1482 3.02397 42.3682V30.0832C3.02397 29.4273 2.97092 28.9486 2.86481 28.6473C2.77639 28.3282 2.58187 28.1155 2.28123 28.0091C1.99829 27.885 1.56502 27.8141 0.981445 27.7964V27.2646C1.26439 27.2823 1.61808 27.3 2.0425 27.3177C2.4846 27.3355 2.91787 27.3443 3.34229 27.3443C3.74902 27.3443 4.14692 27.3355 4.53597 27.3177C4.92502 27.3 5.26987 27.2823 5.5705 27.2646L15.5179 40.5334V31.2C15.5179 30.3314 15.4648 29.6666 15.3587 29.2057C15.2526 28.7448 15.0227 28.408 14.669 28.1952C14.3153 27.9825 13.7583 27.8496 12.9979 27.7964V27.2646C13.3339 27.2823 13.7671 27.3 14.2977 27.3177C14.8459 27.3355 15.3499 27.3443 15.8097 27.3443C16.2518 27.3443 16.685 27.3355 17.1094 27.3177C17.5516 27.3 17.9052 27.2823 18.1705 27.2646ZM26.4007 31.9711C27.9569 31.9711 29.1772 32.4409 30.0614 33.3805C30.9456 34.32 31.3877 35.818 31.3877 37.8743H22.4483L22.4218 37.3691H28.3106C28.346 36.5005 28.2929 35.7027 28.1515 34.9759C28.01 34.2314 27.7801 33.6375 27.4618 33.1943C27.1612 32.7511 26.7633 32.5296 26.2681 32.5296C25.5961 32.5296 25.0125 32.9284 24.5174 33.7261C24.0222 34.5061 23.7127 35.7914 23.5889 37.5818L23.695 37.7414C23.6597 37.9718 23.6331 38.22 23.6155 38.4859C23.6155 38.7518 23.6155 39.0177 23.6155 39.2836C23.6155 40.5068 23.7923 41.5173 24.146 42.315C24.4997 43.1127 24.9595 43.6977 25.5254 44.07C26.0913 44.4423 26.6748 44.6284 27.2761 44.6284C27.6828 44.6284 28.0984 44.5664 28.5228 44.4423C28.9473 44.3182 29.3628 44.0877 29.7696 43.7509C30.1763 43.4141 30.5477 42.9355 30.8837 42.315L31.3877 42.5277C31.1932 43.1482 30.866 43.7686 30.4062 44.3891C29.9641 44.9918 29.3894 45.4882 28.682 45.8782C27.9746 46.2682 27.1435 46.4632 26.1885 46.4632C24.986 46.4632 23.9249 46.1973 23.0054 45.6655C22.0858 45.1336 21.3696 44.3448 20.8567 43.2989C20.3439 42.2352 20.0875 40.9411 20.0875 39.4166C20.0875 37.8034 20.3527 36.4473 20.8833 35.3482C21.4315 34.2491 22.183 33.4159 23.138 32.8486C24.0929 32.2636 25.1805 31.9711 26.4007 31.9711ZM38.7682 32.3434V32.9018C38.4322 32.9018 38.1669 32.9816 37.9724 33.1411C37.7779 33.3007 37.769 33.5223 37.9459 33.8059L44.9753 44.203C45.2229 44.5575 45.4617 44.85 45.6915 45.0805C45.9214 45.3109 46.1955 45.4616 46.5139 45.5325V46.0909C46.2663 46.0732 45.9038 46.0555 45.4263 46.0377C44.9488 46.0023 44.4713 45.9846 43.9939 45.9846C43.3749 45.9846 42.7383 46.0023 42.084 46.0377C41.4473 46.0555 40.9699 46.0732 40.6515 46.0909V45.5325C41.0052 45.5325 41.2793 45.4527 41.4739 45.2932C41.6684 45.1159 41.6684 44.8943 41.4739 44.6284L34.4444 34.2314C34.1438 33.7705 33.8873 33.4514 33.6751 33.2741C33.4629 33.0791 33.2065 32.955 32.9059 32.9018V32.3434C33.1711 32.3611 33.569 32.3877 34.0995 32.4232C34.6301 32.4409 35.1429 32.4498 35.6381 32.4498C36.2393 32.4498 36.8406 32.4409 37.4419 32.4232C38.0431 32.3877 38.4852 32.3611 38.7682 32.3434ZM38.609 39.4964C38.609 39.4964 38.6179 39.5496 38.6356 39.6559C38.6709 39.7623 38.7063 39.8775 38.7417 40.0016C38.777 40.108 38.7947 40.1611 38.7947 40.1611L37.3623 42.0491C36.8494 42.705 36.5665 43.29 36.5134 43.8041C36.4781 44.3182 36.6372 44.7259 36.9909 45.0273C37.3446 45.3286 37.8309 45.5059 38.4499 45.5591V46.0909C38.1315 46.0732 37.7425 46.0643 37.2827 46.0643C36.8406 46.0466 36.4073 46.0377 35.9829 46.0377C35.5585 46.02 35.2048 46.0111 34.9219 46.0111C34.5151 46.0111 34.1526 46.02 33.8343 46.0377C33.5337 46.0377 33.2507 46.0555 32.9854 46.0909V45.5591C33.3745 45.4527 33.7547 45.2489 34.1261 44.9475C34.4974 44.6284 34.9219 44.1675 35.3993 43.5648L38.609 39.4964ZM45.8242 32.3434V32.8752C45.4705 32.9816 45.0903 33.2032 44.6835 33.54C44.2768 33.8591 43.8612 34.3023 43.4368 34.8696L40.4393 38.7518C40.4393 38.7518 40.4217 38.6986 40.3863 38.5923C40.3686 38.4682 40.3421 38.353 40.3067 38.2466C40.289 38.1402 40.2802 38.0871 40.2802 38.0871L41.8718 35.9332C42.3139 35.3482 42.588 34.8341 42.6941 34.3909C42.8002 33.9477 42.7294 33.6021 42.4819 33.3539C42.2343 33.088 41.7922 32.9284 41.1555 32.8752V32.3434C41.6507 32.3611 42.1193 32.3789 42.5614 32.3966C43.0212 32.4143 43.4722 32.4232 43.9143 32.4232C44.3033 32.4232 44.6482 32.4143 44.9488 32.3966C45.2671 32.3789 45.5589 32.3611 45.8242 32.3434ZM52.8609 27.9825V32.37H56.2563V32.9018H52.8609V43.485C52.8609 44.1232 52.9759 44.5752 53.2057 44.8411C53.4356 45.1071 53.7628 45.24 54.1872 45.24C54.594 45.24 54.9653 45.0893 55.3013 44.788C55.6373 44.4689 55.938 43.9459 56.2032 43.2191L56.6807 43.4318C56.4154 44.3005 55.9999 45.0273 55.434 45.6123C54.8857 46.1796 54.1076 46.4632 53.0996 46.4632C52.4984 46.4632 51.9855 46.3834 51.5611 46.2239C51.1544 46.0821 50.8007 45.8693 50.5001 45.5857C50.111 45.178 49.8457 44.6905 49.7043 44.1232C49.5805 43.5559 49.5186 42.8025 49.5186 41.863V32.9018H47.1843V32.37H49.5186V28.6739C50.1552 28.6561 50.7476 28.5941 51.2959 28.4877C51.8441 28.3814 52.3657 28.213 52.8609 27.9825ZM65.8471 27.2646C69.2425 27.2646 71.7537 28.0623 73.3806 29.6577C75.0252 31.2355 75.8475 33.5046 75.8475 36.465C75.8475 38.3973 75.4408 40.0902 74.6273 41.5439C73.8315 42.9798 72.6732 44.0966 71.1524 44.8943C69.6315 45.6921 67.7835 46.0909 65.6084 46.0909C65.3431 46.0909 64.9806 46.0821 64.5208 46.0643C64.0787 46.0466 63.6101 46.0377 63.1149 46.0377C62.6374 46.02 62.1953 46.0111 61.7886 46.0111C61.0635 46.0111 60.3562 46.02 59.6665 46.0377C58.9768 46.0377 58.411 46.0555 57.9689 46.0909V45.5591C58.5525 45.5236 58.9857 45.4527 59.2686 45.3464C59.5692 45.24 59.7638 45.0273 59.8522 44.7082C59.9583 44.3891 60.0113 43.9105 60.0113 43.2723V30.0832C60.0113 29.4273 59.9583 28.9486 59.8522 28.6473C59.7638 28.3282 59.5692 28.1155 59.2686 28.0091C58.9857 27.885 58.5525 27.8141 57.9689 27.7964V27.2646C58.411 27.2823 58.9768 27.3089 59.6665 27.3443C60.3562 27.3621 61.0459 27.3621 61.7356 27.3443C62.3722 27.3266 63.0884 27.3089 63.8842 27.2911C64.68 27.2734 65.3343 27.2646 65.8471 27.2646ZM65.6084 27.7432C64.7949 27.7432 64.2644 27.8939 64.0168 28.1952C63.7692 28.4966 63.6454 29.1082 63.6454 30.03V43.3255C63.6454 44.2473 63.7692 44.8589 64.0168 45.1602C64.2821 45.4616 64.8214 45.6123 65.6349 45.6123C67.2795 45.6123 68.5617 45.2666 69.4812 44.5752C70.4185 43.8661 71.0728 42.838 71.4442 41.4907C71.8332 40.1434 72.0278 38.5036 72.0278 36.5714C72.0278 34.5859 71.8155 32.9461 71.3911 31.6521C70.9844 30.3402 70.3124 29.3652 69.3751 28.7271C68.4379 28.0711 67.1823 27.7432 65.6084 27.7432ZM85.074 31.9711C86.2942 31.9711 87.3729 32.2193 88.3102 32.7157C89.2651 33.1943 90.0167 33.9655 90.5649 35.0291C91.1308 36.0927 91.4138 37.4932 91.4138 39.2305C91.4138 40.9677 91.1308 42.3682 90.5649 43.4318C90.0167 44.4955 89.2651 45.2666 88.3102 45.7452C87.3729 46.2239 86.2942 46.4632 85.074 46.4632C83.8538 46.4632 82.7662 46.2239 81.8113 45.7452C80.8563 45.2666 80.1047 44.4955 79.5565 43.4318C79.0083 42.3682 78.7342 40.9677 78.7342 39.2305C78.7342 37.4932 79.0083 36.0927 79.5565 35.0291C80.1047 33.9655 80.8563 33.1943 81.8113 32.7157C82.7662 32.2193 83.8538 31.9711 85.074 31.9711ZM85.074 32.503C84.2428 32.503 83.562 33.0348 83.0315 34.0984C82.5186 35.1443 82.2622 36.855 82.2622 39.2305C82.2622 41.6059 82.5186 43.3166 83.0315 44.3625C83.562 45.4084 84.2428 45.9314 85.074 45.9314C85.8875 45.9314 86.5595 45.4084 87.09 44.3625C87.6205 43.3166 87.8858 41.6059 87.8858 39.2305C87.8858 36.855 87.6205 35.1443 87.09 34.0984C86.5595 33.0348 85.8875 32.503 85.074 32.503ZM100.422 31.9711C101.642 31.9711 102.72 32.2193 103.658 32.7157C104.613 33.1943 105.364 33.9655 105.912 35.0291C106.478 36.0927 106.761 37.4932 106.761 39.2305C106.761 40.9677 106.478 42.3682 105.912 43.4318C105.364 44.4955 104.613 45.2666 103.658 45.7452C102.72 46.2239 101.642 46.4632 100.422 46.4632C99.2013 46.4632 98.1137 46.2239 97.1588 45.7452C96.2038 45.2666 95.4523 44.4955 94.9041 43.4318C94.3558 42.3682 94.0817 40.9677 94.0817 39.2305C94.0817 37.4932 94.3558 36.0927 94.9041 35.0291C95.4523 33.9655 96.2038 33.1943 97.1588 32.7157C98.1137 32.2193 99.2013 31.9711 100.422 31.9711ZM100.422 32.503C99.5904 32.503 98.9095 33.0348 98.379 34.0984C97.8662 35.1443 97.6097 36.855 97.6097 39.2305C97.6097 41.6059 97.8662 43.3166 98.379 44.3625C98.9095 45.4084 99.5904 45.9314 100.422 45.9314C101.235 45.9314 101.907 45.4084 102.438 44.3625C102.968 43.3166 103.233 41.6059 103.233 39.2305C103.233 36.855 102.968 35.1443 102.438 34.0984C101.907 33.0348 101.235 32.503 100.422 32.503ZM117.839 31.9711C118.387 31.9711 118.838 32.0864 119.192 32.3168C119.563 32.5473 119.837 32.8398 120.014 33.1943C120.191 33.5489 120.279 33.9211 120.279 34.3111C120.279 34.8961 120.102 35.3836 119.749 35.7736C119.413 36.1636 118.962 36.3586 118.396 36.3586C117.865 36.3586 117.432 36.2168 117.096 35.9332C116.76 35.6496 116.592 35.2596 116.592 34.7632C116.592 34.32 116.698 33.9477 116.91 33.6464C117.14 33.345 117.397 33.1057 117.68 32.9284C117.485 32.8221 117.264 32.7866 117.016 32.8221C116.592 32.8575 116.203 33.0082 115.849 33.2741C115.496 33.54 115.195 33.868 114.947 34.258C114.7 34.648 114.505 35.0646 114.364 35.5077C114.24 35.9509 114.178 36.3764 114.178 36.7841V43.3521C114.178 44.2207 114.399 44.8057 114.841 45.1071C115.283 45.3907 115.929 45.5325 116.778 45.5325V46.0909C116.371 46.0732 115.778 46.0555 115 46.0377C114.24 46.0023 113.444 45.9846 112.613 45.9846C111.923 45.9846 111.234 46.0023 110.544 46.0377C109.872 46.0555 109.368 46.0732 109.032 46.0909V45.5325C109.686 45.5325 110.146 45.3996 110.411 45.1336C110.694 44.8677 110.836 44.3625 110.836 43.618V35.2418C110.836 34.4441 110.703 33.8591 110.438 33.4868C110.19 33.0968 109.722 32.9018 109.032 32.9018V32.3434C109.598 32.3966 110.146 32.4232 110.677 32.4232C111.331 32.4232 111.95 32.3966 112.533 32.3434C113.135 32.2725 113.683 32.175 114.178 32.0509V34.8164C114.39 34.32 114.664 33.8591 115 33.4336C115.354 33.0082 115.77 32.6625 116.247 32.3966C116.742 32.113 117.273 31.9711 117.839 31.9711Z" fill="white"/>
<path d="M137.421 5.7475C133.752 5.7475 130.732 8.62111 130.541 12.2995L130.082 21.381C129.586 21.6492 129.164 22.1084 128.897 22.6832C128.247 24.0626 128.439 26.0938 129.356 27.3583C129.814 28.0097 130.464 28.469 131.19 28.6223C131.878 30.4998 132.682 32.1475 133.522 33.6035C137.23 39.9258 141.358 40.8455 143.499 40.8455C145.181 40.8455 148.659 40.2327 151.984 35.788C151.984 35.7497 152.022 35.7492 152.022 35.7109C153.321 33.9867 154.622 31.6495 155.768 28.5842C156.495 28.4309 157.145 28.0098 157.603 27.3201C158.521 26.0174 158.712 24.0245 158.062 22.645C157.794 22.0703 157.374 21.6104 156.877 21.3421L156.533 12.2995C156.342 8.62111 153.322 5.7475 149.653 5.7475H137.421ZM137.421 8.04651H149.653C152.099 8.04651 154.125 9.96248 154.239 12.4147L154.66 21.0742H132.414L132.834 12.4147C132.949 9.96248 134.975 8.04651 137.421 8.04651ZM142.39 11.3034V13.6024H140.097V15.9015H142.39V18.2005H144.683V15.9015H146.977V13.6024H144.683V11.3034H142.39ZM131.229 23.3732H155.807C155.883 23.3732 155.998 23.4112 156.074 23.6411C156.38 24.2542 156.227 25.4042 155.807 26.0172C155.539 26.3621 155.31 26.4006 155.119 26.3622H155.042H154.928H154.813C154.775 26.3622 154.736 26.3621 154.698 26.4004C154.66 26.4004 154.622 26.4386 154.622 26.4386C154.584 26.4386 154.545 26.4767 154.507 26.4767C154.469 26.4767 154.469 26.5149 154.43 26.5149C154.393 26.5532 154.354 26.5537 154.315 26.592C154.278 26.592 154.278 26.6301 154.239 26.6301L154.124 26.7454C154.086 26.7837 154.087 26.7834 154.087 26.8217C154.048 26.8601 154.048 26.8986 154.01 26.937C153.972 26.9753 153.972 27.0132 153.972 27.0515C153.972 27.0898 153.933 27.0902 153.933 27.1286C153.016 29.6958 152.061 31.6493 151.067 33.2203C150.837 32.9138 150.57 32.6078 150.341 32.3013C149.347 31.0752 148.238 29.6955 147.015 28.546C145.065 26.6301 142.008 26.6301 140.058 28.546C138.874 29.6955 137.727 31.0752 136.771 32.3013C136.504 32.6078 136.275 32.9138 136.045 33.2203C135.892 32.9904 135.739 32.7222 135.586 32.454C134.707 30.9596 133.905 29.1593 133.179 27.1286C133.179 27.0902 133.14 27.0898 133.14 27.0515C133.14 27.0132 133.101 26.9753 133.101 26.937C133.063 26.8986 133.064 26.8601 133.025 26.8217L132.949 26.7454L132.872 26.6683L132.796 26.592C132.758 26.5537 132.719 26.5532 132.681 26.5149C132.643 26.5149 132.643 26.4767 132.605 26.4767C132.567 26.4767 132.528 26.4386 132.49 26.4386C132.452 26.4386 132.414 26.4004 132.376 26.4004C132.337 26.4004 132.299 26.4006 132.261 26.3622H132.146H131.994H131.917C131.726 26.4006 131.497 26.3621 131.229 26.0172C130.809 25.4042 130.655 24.2925 130.961 23.6411C131.076 23.4112 131.153 23.3732 131.229 23.3732ZM138.759 40.8455C138.721 40.8455 138.682 40.8453 138.644 40.8837H138.606C138.568 40.8837 138.568 40.8843 138.53 40.9226H138.453L130.005 44.3711C129.432 44.601 129.127 45.2901 129.394 45.8649C129.585 46.3247 130.006 46.593 130.465 46.593C130.617 46.593 130.77 46.555 130.885 46.5167L138.223 43.5277C139.294 45.9416 141.205 47.3975 143.461 47.3975C145.716 47.3975 147.627 45.9416 148.697 43.5277L156.035 46.5167C156.189 46.5933 156.342 46.593 156.457 46.593C156.916 46.593 157.335 46.3247 157.527 45.8649C157.87 45.3284 157.565 44.6391 156.991 44.4093L148.544 40.9607C147.971 40.7309 147.282 40.9989 147.053 41.5737C147.053 41.612 147.015 41.6506 147.015 41.6889C146.403 43.7963 145.104 45.0985 143.537 45.0985C142.008 45.0985 140.67 43.7963 140.058 41.6889C140.058 41.6506 140.059 41.6502 140.021 41.6119V41.5355C140.021 41.5355 140.02 41.4973 139.982 41.4973C139.982 41.459 139.943 41.4204 139.943 41.3821C139.943 41.3438 139.906 41.3058 139.867 41.3058C139.829 41.2674 139.829 41.2287 139.791 41.2287L139.715 41.1523L139.638 41.0753C139.6 41.0369 139.561 41.0373 139.561 40.9989C139.523 40.9606 139.485 40.9607 139.447 40.9607C139.409 40.9607 139.37 40.9226 139.332 40.9226C139.294 40.9226 139.255 40.8837 139.217 40.8837C139.179 40.8837 139.141 40.8838 139.103 40.8455H138.988H138.874H138.759Z" fill="white"/>
</svg>
