<svg width="96" height="96" viewBox="0 0 96 96" fill="none" xmlns="http://www.w3.org/2000/svg">
<path d="M84.4502 18.6749L50.7002 1.7999C49.0502 0.974902 47.0252 0.974902 45.3002 1.7999L11.6252 18.6749C9.60019 19.7249 8.3252 21.7499 8.3252 24.0749C8.3252 51.1499 17.7002 68.4749 25.5752 78.2999C34.1252 88.8749 44.1002 94.4999 48.0752 94.4999C51.9752 94.4999 61.8752 88.7249 70.5002 77.9249C78.3752 68.0249 87.7502 50.6999 87.7502 24.1499C87.7502 21.8249 86.4752 19.7249 84.4502 18.6749ZM41.7002 55.8749L53.6252 62.7749C54.6752 63.3749 55.0502 64.7999 54.4502 65.8499C54.0002 66.5999 53.2502 66.9749 52.5002 66.9749C52.1252 66.9749 51.7502 66.8999 51.3752 66.6749L50.2502 65.9999V71.9999C50.2502 73.2749 49.2752 74.2499 48.0002 74.2499C46.7252 74.2499 45.7502 73.2749 45.7502 71.9999V63.3749L39.4502 59.7749C37.5752 58.7249 36.6002 56.6999 36.9002 54.5999C37.2002 52.4999 38.6252 50.7749 40.6502 50.1749L50.9252 47.2499C51.3752 47.0999 51.4502 46.7999 51.4502 46.4999C51.4502 46.1999 51.3752 45.8999 50.9252 45.7499L40.6502 42.8249C38.6252 42.2249 37.1252 40.5749 36.9002 38.3999C36.6752 36.2249 37.6502 34.2749 39.4502 33.2249L45.7502 29.6249V20.9999C45.7502 19.7249 46.7252 18.7499 48.0002 18.7499C49.2752 18.7499 50.2502 19.7249 50.2502 20.9999V26.9999L51.3752 26.3249C52.4252 25.7249 53.8502 26.0999 54.4502 27.1499C55.0502 28.1999 54.6752 29.6249 53.6252 30.2249L41.7002 37.1249C41.3252 37.3499 41.3252 37.6499 41.3252 37.8749C41.3252 38.0249 41.4752 38.3999 41.8502 38.4749L52.1252 41.3999C54.3752 42.0749 55.9502 44.0999 55.9502 46.4249C55.9502 48.7499 54.4502 50.8499 52.1252 51.4499L41.8502 54.3749C41.4002 54.5249 41.3252 54.8249 41.3252 54.9749C41.3252 55.3499 41.3252 55.6499 41.7002 55.8749Z" fill="white"/>
</svg>
