<svg width="32" height="32" viewBox="0 0 32 32" fill="none" xmlns="http://www.w3.org/2000/svg">
<path d="M16.0001 6.75C12.8251 6.75 10.2501 9.325 10.2501 12.5C10.2501 15.675 12.8251 18.25 16.0001 18.25C19.1751 18.25 21.7501 15.675 21.7501 12.5C21.7501 9.325 19.1751 6.75 16.0001 6.75ZM16.0001 8.25C18.3501 8.25 20.2501 10.15 20.2501 12.5C20.2501 14.85 18.3501 16.75 16.0001 16.75C13.6501 16.75 11.7501 14.85 11.7501 12.5C11.7501 10.15 13.6501 8.25 16.0001 8.25ZM16.0001 20.25C11.9001 20.25 8.10026 22.4749 6.07526 26.0249C5.87526 26.3749 6.00006 26.8498 6.37506 27.0498C6.50006 27.1248 6.62506 27.1499 6.75006 27.1499C7.00006 27.1499 7.27496 27.0249 7.39996 26.7749C9.14996 23.6749 12.4501 21.75 16.0001 21.75C19.5501 21.75 22.8501 23.6749 24.6251 26.7749C24.8251 27.1249 25.275 27.2498 25.65 27.0498C26 26.8498 26.1249 26.3999 25.9249 26.0249C23.8999 22.4749 20.1001 20.25 16.0001 20.25Z" fill="#051034"/>
</svg>
