<svg width="96" height="96" viewBox="0 0 96 96" fill="none" xmlns="http://www.w3.org/2000/svg">
<path d="M44.25 0.75C42.975 0.75 42 1.725 42 3C42 4.275 42.975 5.25 44.25 5.25H51.75C53.025 5.25 54 4.275 54 3C54 1.725 53.025 0.75 51.75 0.75H44.25ZM36.75 8.25C35.475 8.25 34.5 9.225 34.5 10.5V56.25C34.5 57.525 35.475 58.5 36.75 58.5H59.25C60.525 58.5 61.5 57.525 61.5 56.25V33.75C61.5 32.475 60.525 31.5 59.25 31.5C57.975 31.5 57 32.475 57 33.75V54H39V12.75H57V20.1006C55.05 19.7256 53.025 19.5 51 19.5H48C46.725 19.5 45.75 20.475 45.75 21.75C45.75 23.025 46.725 24 48 24H51C65.625 24 77.6253 35.3256 78.6753 49.7256C74.4003 50.7756 71.25 54.6003 71.25 59.1753C71.25 63.7503 74.475 67.65 78.75 68.625V83.25H18.75C15.45 83.25 12.75 85.95 12.75 89.25C12.75 92.55 15.45 95.25 18.75 95.25H81C82.275 95.25 83.25 94.275 83.25 93V85.5V68.625C87.525 67.65 90.75 63.7503 90.75 59.1753C90.75 54.5253 87.5253 50.6994 83.1753 49.6494C82.3503 36.4494 73.5 25.4256 61.5 21.2256V10.5C61.5 9.225 60.525 8.25 59.25 8.25H36.75ZM81 53.9253C83.925 53.9253 86.25 56.2503 86.25 59.1753C86.25 62.1003 83.925 64.4253 81 64.4253C78.075 64.4253 75.75 62.1003 75.75 59.1753C75.75 56.2503 78.075 53.9253 81 53.9253ZM36.75 69C35.475 69 34.5 69.975 34.5 71.25C34.5 72.525 35.475 73.5 36.75 73.5H59.25C60.525 73.5 61.5 72.525 61.5 71.25C61.5 69.975 60.525 69 59.25 69H36.75ZM18.75 87.75H78.75V90.75H18.75C17.925 90.75 17.25 90.075 17.25 89.25C17.25 88.425 17.925 87.75 18.75 87.75Z" fill="white"/>
</svg>
