<svg width="96" height="96" viewBox="0 0 96 96" fill="none" xmlns="http://www.w3.org/2000/svg">
<path d="M48 5.25C42.6 5.25 38.25 9.6 38.25 15C38.25 20.4 42.6 24.75 48 24.75C53.4 24.75 57.75 20.4 57.75 15C57.75 9.6 53.4 5.25 48 5.25ZM21.75 9.75C16.35 9.75 12 14.1 12 19.5C12 24.9 16.35 29.25 21.75 29.25C27.15 29.25 31.5 24.9 31.5 19.5C31.5 14.1 27.15 9.75 21.75 9.75ZM48 9.75C50.925 9.75 53.25 12.075 53.25 15C53.25 17.925 50.925 20.25 48 20.25C45.075 20.25 42.75 17.925 42.75 15C42.75 12.075 45.075 9.75 48 9.75ZM74.25 9.75C68.85 9.75 64.5 14.1 64.5 19.5C64.5 24.9 68.85 29.25 74.25 29.25C79.65 29.25 84 24.9 84 19.5C84 14.1 79.65 9.75 74.25 9.75ZM21.75 14.25C24.675 14.25 27 16.575 27 19.5C27 22.425 24.675 24.75 21.75 24.75C18.825 24.75 16.5 22.425 16.5 19.5C16.5 16.575 18.825 14.25 21.75 14.25ZM74.25 14.25C77.175 14.25 79.5 16.575 79.5 19.5C79.5 22.425 77.175 24.75 74.25 24.75C71.325 24.75 69 22.425 69 19.5C69 16.575 71.325 14.25 74.25 14.25ZM41.1006 27.75C36.2256 27.75 32.0253 31.4253 31.4253 36.3003L28.5 59.6997C28.35 60.8997 29.2497 62.0253 30.4497 62.1753C31.6497 62.3253 32.7753 61.4256 32.9253 60.2256L35.8506 36.8247C36.1506 34.1997 38.3994 32.25 41.0244 32.25H54C58.575 32.25 59.25 38.325 59.25 42V55.5C59.25 56.775 58.275 57.75 57 57.75C55.725 57.75 54.75 58.725 54.75 60V64.5V65.1006V90.75H50.25V64.5C50.25 63.225 49.275 62.25 48 62.25C46.725 62.25 45.75 63.225 45.75 64.5V90.75H41.25V69C41.25 67.725 40.275 66.75 39 66.75C37.725 66.75 36.75 67.725 36.75 69V90.75H24.75C23.475 90.75 22.5 91.725 22.5 93C22.5 94.275 23.475 95.25 24.75 95.25H71.25C72.525 95.25 73.5 94.275 73.5 93C73.5 91.725 72.525 90.75 71.25 90.75H59.25V65.1006V64.5V61.875C61.875 60.975 63.75 58.425 63.75 55.5V42C63.75 38.625 63.075 27.75 54 27.75H41.1006ZM15.75 32.25C10.35 32.25 6 36.6 6 42V58.5C6 61.65 7.8 64.4256 10.5 65.8506V93C10.5 94.275 11.475 95.25 12.75 95.25C14.025 95.25 15 94.275 15 93V64.2744C15 63.2244 14.3244 62.3256 13.2744 62.1006C11.6244 61.7256 10.5 60.225 10.5 58.5V42C10.5 39.075 12.825 36.75 15.75 36.75H27.75C29.025 36.75 30 35.775 30 34.5C30 33.225 29.025 32.25 27.75 32.25H15.75ZM68.25 32.25C66.975 32.25 66 33.225 66 34.5C66 35.775 66.975 36.75 68.25 36.75H80.25C83.175 36.75 85.5 39.075 85.5 42V60C85.5 61.275 84.525 62.25 83.25 62.25C81.975 62.25 81 63.225 81 64.5V92.7744C81 94.0494 81.975 95.0244 83.25 95.0244C84.525 95.0244 85.5 94.0494 85.5 92.7744V66.375C88.125 65.475 90 62.925 90 60V42C90 36.6 85.65 32.25 80.25 32.25H68.25ZM30.75 66.75C29.475 66.75 28.5 67.725 28.5 69V78C28.5 79.275 29.475 80.25 30.75 80.25C32.025 80.25 33 79.275 33 78V69C33 67.725 32.025 66.75 30.75 66.75Z" fill="white"/>
</svg>
