<svg width="96" height="96" viewBox="0 0 96 96" fill="none" xmlns="http://www.w3.org/2000/svg">
<path d="M33.7499 13.5C26.8949 13.5 21.8324 17.8049 19.4999 25.6274C19.1474 26.8199 19.822 28.0728 21.0145 28.4253C21.232 28.4928 21.4505 28.522 21.6605 28.522C22.628 28.522 23.5199 27.8856 23.8124 26.9106C25.5749 21.0006 28.9199 18 33.7499 18C35.9999 18 38.1594 18.6518 40.4544 19.3418C42.8469 20.0618 45.3224 20.8052 47.9999 20.8052C50.6774 20.8052 53.1528 20.0618 55.5453 19.3418C57.8403 18.6518 59.9999 18 62.2499 18C63.5624 18 64.7691 18.2172 65.8416 18.6372C66.9966 19.0947 68.3021 18.5324 68.7596 17.3774C69.2171 16.2224 68.6549 14.917 67.4999 14.4595C65.8949 13.822 64.1324 13.5 62.2499 13.5C59.3399 13.5 56.7522 14.2793 54.2547 15.0293C52.0722 15.6818 50.0174 16.3052 47.9999 16.3052C45.9824 16.3052 43.92 15.6818 41.745 15.0293C39.2475 14.2793 36.6599 13.5 33.7499 13.5ZM67.8734 24.687C60.3095 24.7034 51.6404 25.7901 42.4803 28.0356C23.2953 32.7456 7.63444 41.4457 2.57944 50.2207C0.854441 53.2132 0.38991 56.1144 1.18491 58.8369C2.48241 63.2694 6.99055 66.5404 14.2206 68.2954C14.4006 68.3404 14.5798 68.3628 14.7523 68.3628C15.7648 68.3628 16.6872 67.672 16.9422 66.6445C17.2347 65.437 16.493 64.2227 15.2855 63.9302C9.788 62.5952 6.31473 60.3371 5.50473 57.5771C5.06223 56.0771 5.39282 54.3607 6.48032 52.4707C10.8828 44.8282 25.7776 36.7657 43.5526 32.4082C68.6326 26.2507 88.425 29.85 90.495 36.9375C91.395 40.0125 88.9574 44.1218 83.8124 48.2168C82.8374 48.9893 82.6795 50.4 83.452 51.375C84.232 52.35 85.6425 52.5079 86.6175 51.7354C95.265 44.8504 95.8498 39.1954 94.8148 35.6704C92.723 28.5238 82.3136 24.6556 67.8734 24.687ZM75.7718 35.7832C74.5343 35.7832 73.5293 36.7723 73.5218 38.0098C73.4168 50.2123 69.4194 64.7552 63.3294 75.0527C62.3544 76.6952 60.7419 76.4849 60.2694 76.3799C59.2944 76.1624 58.1928 75.3973 58.0428 73.8823C57.1503 65.0698 55.7999 51.75 47.9999 51.75C40.1999 51.75 38.8492 65.0696 37.9642 73.8896C37.8142 75.4046 36.7126 76.1697 35.7376 76.3872C35.2576 76.4922 33.6451 76.7026 32.6776 75.0601C28.5526 68.0776 25.2452 58.7779 23.6102 49.5454C23.3927 48.3229 22.2224 47.5056 20.9999 47.7231C19.7774 47.9406 18.9601 49.1095 19.1776 50.332C20.9026 60.067 24.4051 69.9156 28.8001 77.3481C30.1501 79.6356 32.505 80.9546 35.055 80.9546C35.595 80.9546 36.1421 80.8946 36.6971 80.7671C39.8546 80.0771 42.1049 77.5495 42.4349 74.332C42.8924 69.862 44.2724 56.25 47.9999 56.25C51.7274 56.25 53.1071 69.8619 53.5721 74.3394C53.8946 77.5494 56.1524 80.0769 59.3099 80.7744C62.4674 81.4719 65.5644 80.1231 67.2069 77.3481C73.6644 66.4206 77.9093 50.9927 78.0218 38.0552C78.0368 36.8102 77.0403 35.7907 75.7953 35.7832H75.7718Z" fill="white"/>
</svg>
