<svg width="32" height="32" viewBox="0 0 32 32" fill="none" xmlns="http://www.w3.org/2000/svg">
<path d="M26.3243 4.65232C26.0602 4.65855 25.8093 4.76902 25.6263 4.95961L16 14.5859L6.37373 4.95961C6.28052 4.86362 6.16899 4.78731 6.04576 4.7352C5.92252 4.68308 5.79008 4.65623 5.65628 4.65622C5.45727 4.65627 5.26279 4.7157 5.09774 4.82689C4.93269 4.93809 4.80456 5.096 4.72976 5.28042C4.65496 5.46484 4.63688 5.66738 4.67783 5.86214C4.71879 6.05689 4.81692 6.235 4.95967 6.37367L14.586 16L4.95967 25.6263C4.8637 25.7184 4.78708 25.8288 4.73429 25.9509C4.68151 26.073 4.65363 26.2045 4.65227 26.3375C4.65092 26.4706 4.67613 26.6025 4.72642 26.7257C4.77671 26.8489 4.85107 26.9608 4.94514 27.0549C5.03922 27.1489 5.15113 27.2233 5.2743 27.2736C5.39748 27.3239 5.52945 27.3491 5.66249 27.3477C5.79553 27.3464 5.92696 27.3185 6.04909 27.2657C6.17122 27.2129 6.28159 27.1363 6.37373 27.0403L16 17.414L25.6263 27.0403C25.7185 27.1363 25.8289 27.2129 25.951 27.2657C26.0731 27.3185 26.2045 27.3464 26.3376 27.3477C26.4706 27.3491 26.6026 27.3239 26.7258 27.2736C26.8489 27.2233 26.9608 27.1489 27.0549 27.0549C27.149 26.9608 27.2234 26.8489 27.2736 26.7257C27.3239 26.6025 27.3491 26.4706 27.3478 26.3375C27.3464 26.2045 27.3186 26.073 27.2658 25.9509C27.213 25.8288 27.1364 25.7184 27.0404 25.6263L17.4141 16L27.0404 6.37367C27.1858 6.2341 27.2857 6.05384 27.3269 5.85654C27.3681 5.65923 27.3487 5.45408 27.2713 5.26798C27.1938 5.08188 27.062 4.92352 26.893 4.81366C26.724 4.70379 26.5258 4.64756 26.3243 4.65232V4.65232Z" fill="#051034"/>
</svg>
