<svg width="18" height="18" viewBox="0 0 18 18" fill="none" xmlns="http://www.w3.org/2000/svg">
<path d="M5.11793 4.7993C5.03994 4.80095 4.00254 5.37301 3.936 5.4152C3.69938 5.56989 4.2711 5.45503 4.46334 5.63784L6.37835 7.44747C6.51145 7.57403 6.46384 7.94947 6.62651 7.85103L6.94763 7.44747L7.42513 7.0916C7.67653 6.95097 7.22111 7.05383 7.01408 6.85695L5.11793 5.06627C5.0255 4.97838 5.2479 4.79655 5.11793 4.7993ZM8.85226 4.00114C7.57607 4.02054 6.30238 4.2869 5.11793 4.7993C5.0292 4.84149 4.99979 4.95393 5.07374 5.02424L7.23277 7.07759C7.27713 7.11978 7.36598 7.13379 7.42513 7.0916C7.9723 6.7541 8.63777 6.58535 9.34761 6.66972C10.5898 6.82441 11.5805 7.7805 11.7579 8.96175C11.8467 9.63675 11.6692 10.2836 11.3143 10.7899C11.2699 10.8461 11.2846 10.9165 11.329 10.9728L13.8136 13.3354C13.8579 13.3776 13.9465 13.3916 13.9909 13.3494C14.5529 13.0119 15.1001 12.6039 15.5882 12.1258L17.6291 10.1853C17.8361 9.98847 17.984 9.72118 17.9988 9.43993C18.0136 9.11649 17.8951 8.80722 17.6585 8.56816L15.5882 6.59941C13.7345 4.82753 11.2886 3.9641 8.85226 4.00114ZM3.936 5.4152C3.92005 5.41718 4.03861 5.35477 4.02382 5.3618C3.46187 5.6993 2.91459 6.10728 2.42657 6.5854L0.370941 8.52586C0.163905 8.72274 0.0160222 8.99004 0.00123387 9.27129C-0.0135544 9.59472 0.104867 9.90399 0.34148 10.143L2.41184 12.1118C4.2308 13.8555 6.62645 14.7134 9.00737 14.7134C10.3383 14.7134 11.6546 14.4463 12.8968 13.9119C12.9855 13.8697 13.0149 13.7573 12.941 13.687L10.708 11.5633C10.6637 11.5211 10.5748 11.5071 10.5157 11.5493C9.96849 11.8868 9.30302 12.0555 8.59318 11.9712C7.35096 11.8165 6.36032 10.8604 6.18286 9.67915C6.09413 9.00415 6.27159 8.35728 6.62651 7.85103C6.67087 7.79478 6.65614 7.72436 6.61178 7.66811L4.20117 5.39009C4.16789 5.35845 3.98383 5.40927 3.936 5.4152ZM11.3143 10.7899C11.2444 10.7902 11.1029 10.9631 11.0419 11L10.5157 11.5633C10.2643 11.7039 10.6493 11.5183 10.8564 11.7152L12.8399 13.5905C12.9286 13.6749 12.7582 13.9119 12.8617 13.9119C12.9652 13.9119 14.0069 13.37 14.0956 13.2856C14.2731 13.1168 13.6383 13.1547 13.4609 13L11.4921 11.1247C11.4089 11.0456 11.4307 10.7893 11.3143 10.7899Z" fill="#051034"/>
</svg>
