<svg width="96" height="96" viewBox="0 0 96 96" fill="none" xmlns="http://www.w3.org/2000/svg">
<path d="M33.375 6.14941C27.975 6.14941 23.625 10.4994 23.625 15.8994V80.0244C23.625 85.4244 27.975 89.8506 33.375 89.8506H62.625C68.025 89.8506 72.375 85.5006 72.375 80.1006V15.8994C72.375 10.4994 68.025 6.14941 62.625 6.14941H33.375ZM33.375 10.6494H62.625C65.55 10.6494 67.875 12.9744 67.875 15.8994V70.8003H28.125V15.8994C28.125 12.9744 30.45 10.6494 33.375 10.6494ZM43.875 14.25C42.6 14.25 41.625 15.225 41.625 16.5C41.625 17.775 42.6 18.75 43.875 18.75H52.125C53.4 18.75 54.375 17.775 54.375 16.5C54.375 15.225 53.4 14.25 52.125 14.25H43.875ZM45.75 34.5V41.25H39V45.75H45.75V52.5H50.25V45.75H57V41.25H50.25V34.5H45.75ZM28.125 75.375H67.875V80.0244C67.875 82.9494 65.55 85.2744 62.625 85.2744H33.375C30.45 85.2744 28.125 82.9494 28.125 80.0244V75.375ZM48 78.0557C47.4188 78.0557 46.8378 78.2628 46.4253 78.6753C45.9753 79.1253 45.75 79.65 45.75 80.25C45.75 80.85 45.9753 81.4497 46.4253 81.8247C46.8003 82.2747 47.4 82.5 48 82.5C48.6 82.5 49.1997 82.2747 49.5747 81.8247C50.0247 81.3747 50.25 80.85 50.25 80.25C50.25 79.65 50.0247 79.0503 49.5747 78.6753C49.1622 78.2628 48.5812 78.0557 48 78.0557Z" fill="white"/>
</svg>
