<svg width="14" height="14" viewBox="0 0 14 14" fill="none" xmlns="http://www.w3.org/2000/svg">
<path d="M13.4209 2.1692L8.59022 6.99953L13.4209 11.8299C13.8597 12.2686 13.8597 12.9812 13.4209 13.42C13.2034 13.6412 12.9146 13.75 12.6258 13.75C12.337 13.75 12.052 13.6412 11.8307 13.42L7 8.58964L2.16933 13.42C1.9518 13.6412 1.66301 13.75 1.37422 13.75C1.08543 13.75 0.796638 13.6412 0.579108 13.42C0.140297 12.9812 0.140297 12.2686 0.579108 11.8299L5.40978 6.99953L0.579108 2.1692C0.140297 1.73042 0.140297 1.01787 0.579108 0.579085C1.01792 0.140305 1.73052 0.140305 2.16933 0.579085L7 5.40942L11.8307 0.579085C12.2695 0.140305 12.9821 0.140305 13.4209 0.579085C13.8597 1.01787 13.8597 1.73042 13.4209 2.1692Z" fill="#051034"/>
</svg>
