<svg width="32" height="32" viewBox="0 0 32 32" fill="none" xmlns="http://www.w3.org/2000/svg">
<path d="M19.834 3.91702C19.5161 3.9056 19.1938 3.94056 18.875 4.02493C18.025 4.24993 17.3249 4.79983 16.8999 5.54983L16 7.17483C15.8 7.52483 15.9249 8.00023 16.2749 8.20023L20.6001 10.7002C20.7251 10.7752 20.8501 10.7998 20.9751 10.7998C21.0501 10.7998 21.0998 10.7999 21.1748 10.7749C21.3748 10.7249 21.525 10.5998 21.625 10.4248L22.5498 8.79983C22.9748 8.04983 23.1 7.17523 22.875 6.32523C22.65 5.47523 22.1001 4.77513 21.3501 4.35013C20.8814 4.0845 20.3638 3.93607 19.834 3.91702ZM15.0244 9.53177C14.7822 9.55032 14.5498 9.68118 14.4248 9.89993L6.87502 23C6.02502 24.45 5.55022 26.0751 5.45022 27.7251L5.25002 30.9502C5.22502 31.2252 5.37502 31.4999 5.62502 31.6499C5.75002 31.7249 5.87502 31.75 6.00002 31.75C6.15002 31.75 6.29983 31.7 6.42483 31.625L9.12502 29.8501C10.5 28.9251 11.675 27.7 12.5 26.25L20.0752 13.1499C20.2752 12.7999 20.1498 12.325 19.7998 12.125C19.4498 11.925 18.9749 12.0499 18.7749 12.3999L11.2002 25.5C10.4752 26.725 9.47492 27.8001 8.27492 28.6001L6.82522 29.5498L6.92483 27.8252C6.99983 26.4002 7.42492 25 8.14992 23.75L15.7251 10.6499C15.9251 10.2999 15.8002 9.82503 15.4502 9.62503C15.319 9.55003 15.1697 9.52064 15.0244 9.53177ZM12.25 30.25C11.825 30.25 11.5 30.575 11.5 31C11.5 31.425 11.825 31.75 12.25 31.75H22.25C22.675 31.75 23 31.425 23 31C23 30.575 22.675 30.25 22.25 30.25H12.25ZM26 30.25C25.8011 30.25 25.6103 30.329 25.4697 30.4697C25.329 30.6104 25.25 30.8011 25.25 31C25.25 31.1989 25.329 31.3897 25.4697 31.5304C25.6103 31.671 25.8011 31.75 26 31.75C26.1989 31.75 26.3897 31.671 26.5304 31.5304C26.671 31.3897 26.75 31.1989 26.75 31C26.75 30.8011 26.671 30.6104 26.5304 30.4697C26.3897 30.329 26.1989 30.25 26 30.25V30.25Z" fill="#051034"/>
</svg>
