<svg width="32" height="32" viewBox="0 0 32 32" fill="none" xmlns="http://www.w3.org/2000/svg">
<path d="M19.9749 20.95C18.6999 20.5 17.3749 20.25 15.9999 20.25C11.8999 20.25 8.09994 22.475 6.07494 26.025C5.87494 26.375 5.99994 26.85 6.34994 27.05C6.47494 27.125 6.59994 27.15 6.72494 27.15C6.97494 27.15 7.24994 27.025 7.37494 26.775C9.14994 23.675 12.4499 21.75 15.9999 21.75C17.1749 21.75 18.3499 21.95 19.4499 22.375C19.5249 22.4 19.6249 22.425 19.6999 22.425C19.9999 22.425 20.2999 22.25 20.3999 21.925C20.5499 21.525 20.3499 21.1 19.9749 20.95ZM15.9999 6.75C12.8249 6.75 10.2499 9.325 10.2499 12.5C10.2499 15.675 12.8249 18.25 15.9999 18.25C19.1749 18.25 21.7499 15.675 21.7499 12.5C21.7499 9.325 19.1749 6.75 15.9999 6.75ZM15.9999 16.75C13.6499 16.75 11.7499 14.85 11.7499 12.5C11.7499 10.15 13.6499 8.25 15.9999 8.25C18.3499 8.25 20.2499 10.15 20.2499 12.5C20.2499 14.85 18.3499 16.75 15.9999 16.75ZM22.9749 22.975C21.0249 24.925 21.0249 28.1 22.9749 30.05C24.9249 32 28.0999 32 30.0499 30.05C31.9999 28.1 31.9999 24.925 30.0499 22.975C28.0749 21 24.9249 21 22.9749 22.975ZM28.2249 27.25H27.2249V28.25C27.2249 28.675 26.8999 29 26.4749 29C26.0499 29 25.7249 28.675 25.7249 28.25V27.25H24.7249C24.2999 27.25 23.9749 26.925 23.9749 26.5C23.9749 26.075 24.2999 25.75 24.7249 25.75H25.7249V24.75C25.7249 24.325 26.0499 24 26.4749 24C26.8999 24 27.2249 24.325 27.2249 24.75V25.75H28.2249C28.6499 25.75 28.9749 26.075 28.9749 26.5C28.9749 26.925 28.6499 27.25 28.2249 27.25Z" fill="#051034"/>
</svg>
