<svg width="32" height="32" viewBox="0 0 32 32" fill="none" xmlns="http://www.w3.org/2000/svg">
<path d="M16 1.5C12.125 1.5 8.475 3 5.75 5.75C3 8.475 1.5 12.125 1.5 16C1.5 19.875 3 23.525 5.75 26.25C8.5 29 12.125 30.5 16 30.5C19.875 30.5 23.525 29 26.25 26.25C29 23.5 30.5 19.875 30.5 16C30.5 12.125 29 8.475 26.25 5.75C23.525 3 19.875 1.5 16 1.5ZM16 3C19.475 3 22.7252 4.3498 25.2002 6.7998C27.6752 9.2498 29 12.525 29 16C29 19.475 27.6502 22.7252 25.2002 25.2002C22.7252 27.6502 19.475 29 16 29C12.525 29 9.2748 27.6502 6.7998 25.2002C4.3248 22.7502 3 19.475 3 16C3 12.525 4.3498 9.2748 6.7998 6.7998C9.2498 4.3248 12.525 3 16 3ZM12.6406 11.875C12.45 11.875 12.2625 11.9501 12.125 12.1001C11.825 12.4001 11.825 12.8749 12.125 13.1499L14.9502 16L12.1001 18.8252C11.8001 19.1252 11.8001 19.6 12.1001 19.875C12.2501 20.025 12.45 20.1001 12.625 20.1001C12.8 20.1001 12.9999 20.025 13.1499 19.875L16 17.0498L18.8252 19.875C18.9752 20.025 19.1751 20.1001 19.3501 20.1001C19.5251 20.1001 19.725 20.025 19.875 19.875C20.175 19.575 20.175 19.1002 19.875 18.8252L17.0498 16L19.875 13.1748C20.175 12.8748 20.1749 12.4001 19.8999 12.1001C19.5999 11.8001 19.1251 11.8001 18.8501 12.1001L16 14.9502L13.1748 12.1001C13.0248 11.9501 12.8312 11.875 12.6406 11.875Z" fill="#051034"/>
</svg>
