<svg width="96" height="96" viewBox="0 0 96 96" fill="none" xmlns="http://www.w3.org/2000/svg">
<path d="M48.2609 0.764546C47.3999 0.757515 46.538 0.777729 45.6755 0.824604C35.9255 1.3496 26.7752 5.54931 19.8752 12.5243C12.9002 19.4993 8.77489 28.7255 8.32489 38.4755C7.57489 52.5005 14.1008 65.6249 25.7258 73.4999C26.7758 74.1749 28.2002 73.9493 28.8752 72.8993C29.5502 71.8493 29.3246 70.4249 28.2746 69.7499C17.9996 62.7749 12.1499 51.1496 12.8249 38.6996C13.6499 20.9996 28.1996 6.2996 45.8996 5.3246C52.0496 4.9496 58.1258 6.22519 63.6008 8.92519C72.9758 13.5752 79.9502 22.6502 82.1252 33.3002L86.9255 56.3246C86.9255 56.3996 87.0002 56.4752 87.0002 56.5502C87.2252 57.3752 87.0758 58.2002 86.4758 58.8002L84.3752 60.8993C83.1752 62.1743 82.5002 63.8249 82.5002 65.6249V76.4999C82.5002 78.5999 80.8502 80.2499 78.7502 80.2499H72.7502C67.3502 80.2499 63.0002 84.5999 63.0002 89.9999V92.9999C63.0002 94.2749 63.9752 95.2499 65.2502 95.2499C66.5252 95.2499 67.5002 94.2749 67.5002 92.9999V89.9999C67.5002 87.0749 69.8252 84.7499 72.7502 84.7499H78.7502C83.3252 84.7499 87.0002 81.0749 87.0002 76.4999V65.6249C87.0002 65.0249 87.2258 64.5002 87.6008 64.0502L89.6999 61.9496C91.4249 60.2246 92.0258 57.6755 91.3508 55.3505L86.5505 32.3993C84.0005 20.3993 76.2002 10.1249 65.6252 4.8749C60.2439 2.18427 54.2882 0.813765 48.2609 0.764546ZM49.4914 12.0189C48.6383 12.0377 47.7749 12.2255 46.9499 12.6005C45.6749 13.2005 44.6249 14.1005 43.9499 15.2255C41.4749 13.5755 38.1749 13.2005 35.3249 14.4755C32.3999 15.7505 30.5246 18.4499 30.1496 21.3749C28.6496 21.2249 27.0746 21.4499 25.6496 22.1249C21.1496 24.1499 19.1246 29.4752 21.1496 34.0502L21.3752 34.4999C18.6752 37.0499 17.7758 41.0996 19.3508 44.6996C21.3758 49.1996 26.6996 51.2246 31.2746 49.1996C32.7746 48.5246 37.1996 46.5752 42.5246 44.1752C43.1246 43.8752 43.7999 44.4746 43.5749 45.0746C42.6749 47.3996 42.2258 49.9496 42.2258 52.5746V76.4252C42.2258 77.5502 42.9746 78.5249 44.0246 78.7499C45.4496 79.0499 46.7258 77.9246 46.7258 76.5746V52.5746V51.6752C47.0258 45.6752 50.9258 40.3499 56.4758 37.8749C63.3008 34.7999 69.0749 32.1755 70.1999 31.7255C73.4999 30.1505 74.4752 25.2755 70.8752 22.3505C69.3752 21.1505 67.2755 20.9993 65.5505 21.8993C65.8505 20.6243 65.7005 19.3496 65.1755 18.0746C63.9005 15.3746 60.7496 13.9505 57.8996 14.8505C57.0746 15.1505 56.3258 15.5249 55.7258 16.1249C55.7258 16.0499 55.6496 15.9743 55.6496 15.8993C54.5246 13.4243 52.0508 11.9627 49.4914 12.0189ZM44.2502 86.3246C42.9752 86.3246 42.0002 87.2996 42.0002 88.5746V93.0746C42.0002 94.4246 43.2749 95.5499 44.6999 95.2499C45.7499 95.0249 46.5002 94.0502 46.5002 92.9252V88.4999C46.5002 87.2249 45.5252 86.2496 44.2502 86.3246Z" fill="white"/>
</svg>
