<svg width="32" height="32" viewBox="0 0 32 32" fill="none" xmlns="http://www.w3.org/2000/svg">
<path d="M12.25 0.25C11.835 0.25 11.5 0.585 11.5 1C11.5 1.415 11.835 1.75 12.25 1.75H19.75C20.165 1.75 20.5 1.415 20.5 1C20.5 0.585 20.165 0.25 19.75 0.25H12.25ZM6 3.75C4.2075 3.75 2.75 5.2075 2.75 7C2.75 8.7925 4.2075 10.25 6 10.25H25.25V26C25.25 28.3425 23.3425 30.25 21 30.25H11C8.6575 30.25 6.75 28.3425 6.75 26V13C6.75 12.585 6.415 12.25 6 12.25C5.585 12.25 5.25 12.585 5.25 13V26C5.25 29.17 7.83 31.75 11 31.75H21C24.17 31.75 26.75 29.17 26.75 26V10.1602C28.18 9.82016 29.25 8.535 29.25 7C29.25 5.2075 27.7925 3.75 26 3.75H6ZM6 5.25H26C26.965 5.25 27.75 6.035 27.75 7C27.75 7.965 26.965 8.75 26 8.75H6C5.035 8.75 4.25 7.965 4.25 7C4.25 6.035 5.035 5.25 6 5.25ZM12.5 13.75C12.085 13.75 11.75 14.085 11.75 14.5V26C11.75 26.415 12.085 26.75 12.5 26.75C12.915 26.75 13.25 26.415 13.25 26V14.5C13.25 14.085 12.915 13.75 12.5 13.75ZM19.5 13.75C19.085 13.75 18.75 14.085 18.75 14.5V26C18.75 26.415 19.085 26.75 19.5 26.75C19.915 26.75 20.25 26.415 20.25 26V14.5C20.25 14.085 19.915 13.75 19.5 13.75Z" fill="#051034"/>
</svg>
