<svg width="96" height="96" viewBox="0 0 96 96" fill="none" xmlns="http://www.w3.org/2000/svg">
<path d="M14.25 77.25C19.65 77.25 24 72.9 24 67.5C24 66.75 23.925 66 23.7 65.25L29.85 61.5C30.9 60.825 31.275 59.475 30.6 58.425C29.925 57.375 28.575 57 27.525 57.675L21.675 61.2C19.95 59.1 17.25 57.75 14.25 57.75C8.85 57.75 4.5 62.1 4.5 67.5C4.5 72.9 8.85 77.25 14.25 77.25ZM14.25 62.25C17.175 62.25 19.5 64.575 19.5 67.5C19.5 70.425 17.175 72.75 14.25 72.75C11.325 72.75 9 70.425 9 67.5C9 64.575 11.325 62.25 14.25 62.25ZM72 28.5C72 29.55 72.15 30.6 72.525 31.575L66.525 34.95C65.475 35.55 65.1 36.9 65.7 38.025C66.3 39.075 67.65 39.45 68.775 38.85L74.925 35.325C76.725 37.125 79.125 38.175 81.825 38.175C87.225 38.175 91.575 33.825 91.575 28.425C91.575 23.025 87.225 18.675 81.825 18.675C76.425 18.675 72 23.1 72 28.5ZM87 28.5C87 31.425 84.675 33.75 81.75 33.75C78.825 33.75 76.5 31.425 76.5 28.5C76.5 25.575 78.825 23.25 81.75 23.25C84.675 23.25 87 25.575 87 28.5ZM48 27.75C49.275 27.75 50.25 26.775 50.25 25.5V19.2C54.525 18.15 57.75 14.325 57.75 9.75C57.75 4.35 53.4 0 48 0C42.6 0 38.25 4.35 38.25 9.75C38.25 14.325 41.475 18.225 45.75 19.2V25.5C45.75 26.775 46.725 27.75 48 27.75ZM42.75 9.75C42.75 6.825 45.075 4.5 48 4.5C50.925 4.5 53.25 6.825 53.25 9.75C53.25 12.675 50.925 15 48 15C45.075 15 42.75 12.675 42.75 9.75ZM91.5 67.5C91.5 62.1 87.15 57.75 81.75 57.75C78.75 57.75 76.125 59.1 74.325 61.2L68.475 57.675C67.425 57 66 57.375 65.4 58.425C64.725 59.475 65.1 60.9 66.15 61.5L72.3 65.25C72.15 66 72 66.75 72 67.5C72 72.9 76.35 77.25 81.75 77.25C87.15 77.25 91.5 72.9 91.5 67.5ZM81.75 72.75C78.825 72.75 76.5 70.425 76.5 67.5C76.5 64.575 78.825 62.25 81.75 62.25C84.675 62.25 87 64.575 87 67.5C87 70.425 84.675 72.75 81.75 72.75ZM14.25 38.25C17.025 38.25 19.5 37.05 21.3 35.25L27.375 38.775C28.425 39.375 29.85 39 30.45 37.95C31.05 36.9 30.675 35.475 29.625 34.875L23.55 31.425C23.85 30.525 24 29.55 24 28.575C24 23.175 19.65 18.825 14.25 18.825C8.85 18.825 4.5 23.1 4.5 28.5C4.5 33.9 8.85 38.25 14.25 38.25ZM14.25 23.25C17.175 23.25 19.5 25.575 19.5 28.5C19.5 31.425 17.175 33.75 14.25 33.75C11.325 33.75 9 31.425 9 28.5C9 25.575 11.325 23.25 14.25 23.25ZM27 86.25C27 87.525 27.975 88.5 29.25 88.5C30.525 88.5 31.5 87.525 31.5 86.25C31.5 77.175 38.925 69.75 48 69.75C57.075 69.75 64.5 77.175 64.5 86.25C64.5 87.525 65.475 88.5 66.75 88.5C68.025 88.5 69 87.525 69 86.25C69 74.7 59.55 65.25 48 65.25C36.45 65.25 27 74.625 27 86.25ZM48 61.5C55.425 61.5 61.5 55.425 61.5 48C61.5 40.575 55.425 34.5 48 34.5C40.575 34.5 34.5 40.575 34.5 48C34.5 55.425 40.575 61.5 48 61.5ZM48 39C52.95 39 57 43.05 57 48C57 52.95 52.95 57 48 57C43.05 57 39 52.95 39 48C39 43.05 43.05 39 48 39Z" fill="white"/>
</svg>
