<svg width="32" height="32" viewBox="0 0 32 32" fill="none" xmlns="http://www.w3.org/2000/svg">
<path d="M12.75 0.25C10.2675 0.25 8.25 2.2675 8.25 4.75V7.9502C5.805 8.6127 4 10.8475 4 13.5V26C4 29.17 6.58 31.75 9.75 31.75H22.25C25.42 31.75 28 29.17 28 26V13.5C28 10.8475 26.195 8.6127 23.75 7.9502V4.75C23.75 2.2675 21.7325 0.25 19.25 0.25H12.75ZM12.75 1.75H19.25C20.905 1.75 22.25 3.095 22.25 4.75V7.75H9.75V4.75C9.75 3.095 11.095 1.75 12.75 1.75ZM9.75 9.25H22.25C24.5925 9.25 26.5 11.1575 26.5 13.5V26C26.5 28.3425 24.5925 30.25 22.25 30.25H9.75C7.4075 30.25 5.5 28.3425 5.5 26V13.5C5.5 11.1575 7.4075 9.25 9.75 9.25ZM16 16.5C14.2075 16.5 12.75 17.9575 12.75 19.75C12.75 21.2825 13.82 22.5702 15.25 22.9102V24.75C15.25 25.165 15.585 25.5 16 25.5C16.415 25.5 16.75 25.165 16.75 24.75V22.9102C18.18 22.5702 19.25 21.285 19.25 19.75C19.25 17.9575 17.7925 16.5 16 16.5ZM16 18C16.965 18 17.75 18.785 17.75 19.75C17.75 20.715 16.965 21.5 16 21.5C15.035 21.5 14.25 20.715 14.25 19.75C14.25 18.785 15.035 18 16 18Z" fill="#051034"/>
</svg>
