<svg width="96" height="96" viewBox="0 0 96 96" fill="none" xmlns="http://www.w3.org/2000/svg">
<path d="M36.8453 0.713448C36.6921 0.710079 36.5345 0.721944 36.3751 0.750069C30.9751 1.72507 27.1507 6.37448 27.2257 11.7745L27.6007 49.8751C27.6007 50.5501 27.9004 51.1507 28.4254 51.6007C28.8004 51.9757 29.3257 52.1251 29.8507 52.1251H30.2257L36.9757 50.9254L37.8751 55.3507C38.1001 56.4007 39.0004 57.1495 40.0504 57.1495C40.2004 57.1495 40.3501 57.1498 40.5001 57.0748C41.7001 56.8498 42.5254 55.6498 42.3004 54.4498L41.4757 50.1007L45.0001 49.5001C46.2751 49.2751 47.0251 48.0751 46.8751 46.8751L39.0001 2.55036C38.8032 1.50036 37.9179 0.737032 36.8453 0.713448ZM59.1022 0.713448C58.0655 0.737032 57.1223 1.50036 56.9254 2.55036L49.1251 46.8751C48.9001 48.0751 49.7254 49.2751 50.9254 49.5001L54.7501 50.1754L54.0748 53.4757L38.7745 61.9498C38.1745 62.2498 37.7995 62.8495 37.6495 63.5245L36.9757 67.1998C34.2007 67.6498 31.8757 69.7504 31.3507 72.6754L29.0245 85.9498C28.3495 89.6248 30.8251 93.1501 34.5001 93.7501C34.8751 93.8251 35.2498 93.8248 35.6998 93.8248C38.9248 93.8248 41.7751 91.4995 42.3751 88.2745L44.6998 75.0001C44.9998 73.2001 44.6248 71.4007 43.5748 69.9757C42.9748 69.1507 42.3007 68.4745 41.4757 68.0245L42.0001 65.3995L57.3751 56.9254C57.9751 56.6254 58.3501 56.0254 58.5001 55.4254L59.3995 51.0001L65.9254 52.1251H66.3004C66.8254 52.1251 67.3507 51.9757 67.7257 51.6007C68.1007 51.1507 68.3995 50.5501 68.3995 49.8751L68.7745 11.7745C68.7745 6.29948 64.9504 1.65007 59.5504 0.750069C59.4004 0.721944 59.2503 0.710079 59.1022 0.713448ZM35.1007 5.92536L42.0001 45.4498L32.1007 47.1754L31.8004 11.6998C31.8004 9.22478 33.0757 7.05036 35.1007 5.92536ZM60.9757 5.92536C63.0007 7.05036 64.2745 9.22478 64.2745 11.6998L63.8995 47.1754L54.0001 45.4498L60.9757 5.92536ZM56.4728 61.689C56.3247 61.6857 56.1745 61.6975 56.0245 61.7257C54.8245 61.9507 54.0007 63.1507 54.2257 64.3507L54.8995 67.9498C53.9995 68.3998 53.1748 69.0757 52.5748 69.9757C51.5248 71.4757 51.1498 73.2751 51.4498 75.0001L53.7745 88.2745C54.3745 91.5745 57.2248 93.8248 60.4498 93.8248C60.8248 93.8248 61.1995 93.8251 61.6495 93.7501C65.3245 93.0751 67.8001 89.6248 67.1251 85.9498L64.8004 72.6754C64.5004 70.8754 63.5245 69.3748 62.0245 68.3248C61.1995 67.7248 60.2998 67.3498 59.3248 67.1998L58.6495 63.5245C58.4526 62.4745 57.5094 61.7126 56.4728 61.689ZM38.0245 71.6251H38.3995C38.9995 71.7001 39.5248 72.0745 39.8248 72.5245C40.1998 73.0495 40.2748 73.6501 40.1998 74.2501L37.8751 87.5245C37.6501 88.7245 36.5251 89.5498 35.2501 89.3248C34.6501 89.2498 34.1248 88.8754 33.8248 88.4254C33.4498 87.9004 33.3748 87.2995 33.4498 86.7745L35.7745 73.5001C35.9995 72.3751 36.8995 71.6251 38.0245 71.6251ZM57.7501 71.6251H58.1251C58.5751 71.6251 59.0245 71.7751 59.3995 72.0001C59.9245 72.3751 60.2254 72.8254 60.3004 73.4254L62.6251 86.6998C62.8501 87.8998 62.0248 89.0998 60.8248 89.3248C59.6248 89.5498 58.4248 88.7245 58.1998 87.5245L55.9498 74.2501C55.7998 73.6501 55.9498 73.0495 56.3248 72.5245C56.6998 71.9995 57.1501 71.7001 57.7501 71.6251Z" fill="white"/>
</svg>
