<svg width="64" height="64" viewBox="0 0 64 64" fill="none" xmlns="http://www.w3.org/2000/svg">
<path d="M33.7002 10.1504C28.6502 10.2004 24.5 14.1004 24.5 18.9004C24.5 21.6004 25.7998 24.1 28.0498 25.75L28.1504 25.8496L38.5996 33.5C38.8496 33.7 39.2 33.7998 39.5 33.7998C39.8 33.7998 40.1504 33.7 40.4004 33.5L51.0498 25.6504C51.0998 25.6504 51.1004 25.5996 51.1504 25.5996C53.3004 23.9496 54.5 21.5004 54.5 18.9004C54.5 14.1004 50.3498 10.2002 45.2998 10.2002C43.1498 10.2002 41.15 10.8996 39.5 12.0996C37.85 10.8496 35.8502 10.1504 33.7002 10.1504ZM33.7002 13.2002C35.5002 13.2002 37.2004 13.9002 38.4004 15.2002C38.9504 15.8002 39.9996 15.8002 40.5996 15.2002C41.7996 13.9502 43.4998 13.2002 45.2998 13.2002C48.6998 13.2002 51.5 15.7504 51.5 18.9004C51.5 20.6004 50.7 22.1998 49.25 23.2998C49.25 23.2998 49.2002 23.2996 49.2002 23.3496L39.5 30.4502L30.0498 23.5C29.9998 23.45 29.9504 23.4004 29.9004 23.4004C28.3504 22.3004 27.5 20.6504 27.5 18.9004C27.5 15.7504 30.3002 13.2002 33.7002 13.2002ZM7.7998 33.7998C6.9498 33.7998 6.2998 34.4498 6.2998 35.2998C6.2998 36.1498 6.9498 36.7998 7.7998 36.7998H14.9502C15.0002 36.7998 15.0498 36.8496 15.0498 36.8496V37.2002V49.5V50H7.7998C6.9498 50 6.2998 50.65 6.2998 51.5C6.2998 52.35 6.9498 53 7.7998 53H15.0498C16.1998 53 17.2002 52.3502 17.7002 51.4502L30.5 55.4502C30.65 55.5002 32.6498 56.0498 35.0498 56.0498C36.3498 56.0498 37.7002 55.9004 38.9502 55.4004C41.6002 54.3504 51.5502 49.1004 55.7002 46.9004C57.1002 46.1504 58.2002 44.35 57.4502 42.5C57.0002 41.4 55.7002 39.6496 52.4502 40.5996H52.4004L46.5996 42.5498C45.7996 42.7998 45.4004 43.6502 45.6504 44.4502C45.9004 45.2502 46.7498 45.6504 47.5498 45.4004L53.2998 43.4502C54.4998 43.1002 54.6002 43.4004 54.7002 43.6504C54.8002 43.9004 54.3996 44.2002 54.3496 44.2002C51.1496 45.9002 40.4496 51.5496 37.8496 52.5996C35.2496 53.6496 31.4004 52.5498 31.4004 52.5498L20.5498 49.2002V38.7998H22.6504C24.5504 38.7998 29.8996 39.4002 31.8496 42.2002C32.1496 42.6002 32.5996 42.8496 33.0996 42.8496H40.4004C41.0504 42.8496 41.6502 43.3004 41.7002 43.9004V44.0498V44.1504V44.25C41.7002 44.3 41.7004 44.3496 41.6504 44.3496C41.6504 44.3996 41.6496 44.4002 41.5996 44.4502C41.3996 44.8502 41 45.1504 40.5 45.1504H29.9004C29.0504 45.1504 28.4004 45.8004 28.4004 46.6504C28.4004 47.5004 29.0504 48.1504 29.9004 48.1504H40.5C41.95 48.1504 43.25 47.4 44 46.25V46.2002C44.05 46.1502 44.0496 46.0998 44.0996 46.0498C44.0996 45.9998 44.1504 45.9502 44.1504 45.9502C44.2004 45.8502 44.2498 45.7496 44.2998 45.5996V45.5498C44.3498 45.4498 44.4004 45.3502 44.4004 45.2002V45.0996C44.4504 44.9996 44.45 44.8998 44.5 44.7998V44.7002C44.5 44.6002 44.5498 44.5004 44.5498 44.4004V44.2998V43.9004V43.5498C44.3498 41.3998 42.5 39.75 40.25 39.75H33.7998C30.2998 35.75 22.9504 35.7002 22.6504 35.7002H17.7998C17.3498 34.6002 16.2502 33.7998 14.9502 33.7998H7.7998Z" fill="#051034"/>
</svg>
