<svg width="96" height="96" viewBox="0 0 96 96" fill="none" xmlns="http://www.w3.org/2000/svg">
<path d="M19.5747 33.2256C14.1747 33.2256 9.82471 37.5756 9.82471 42.9756V78.2256H9.07471C7.79971 78.2256 6.82471 79.2006 6.82471 80.4756C6.82471 81.7506 7.79971 82.7256 9.07471 82.7256H14.5503C14.5503 83.0256 14.4756 83.2503 14.4756 83.5503C14.4756 88.8003 18.7503 93 23.9253 93C29.1753 93 33.375 88.7253 33.375 83.5503C33.375 83.2503 33.3753 83.0256 33.3003 82.7256H62.3994V82.8003C62.3994 88.0503 66.6756 92.25 71.8506 92.25C77.1006 92.25 81.3003 87.9753 81.3003 82.8003V82.7256H86.9253C88.2003 82.7256 89.1753 81.7506 89.1753 80.4756V78.2256C89.1753 62.2506 83.6994 46.5753 73.6494 34.0503C73.3494 33.5253 72.7497 33.2256 72.0747 33.2256H62.3247C62.1747 33.2256 62.0997 33.2253 61.9497 33.3003C61.7997 33.3003 61.7247 33.2256 61.5747 33.2256H19.5747ZM19.5747 37.7256H60.0747V46.7256C60.0747 52.1256 64.4247 56.4756 69.8247 56.4756H76.6494C78.9744 63.4506 80.325 70.8006 80.25 78.2256C78.6 75.3006 75.5253 73.3506 71.9253 73.3506C68.3253 73.3506 65.2506 75.3006 63.6006 78.2256H31.8003C30.0753 75.7506 27.225 74.1006 24 74.1006C20.775 74.1006 17.8497 75.7506 16.1997 78.2256H14.3247V42.9756C14.3247 40.0506 16.6497 37.7256 19.5747 37.7256ZM64.5747 37.7256H70.9497C74.3247 42.1506 77.1756 46.9506 79.3506 51.9756H69.8247C66.8997 51.9756 64.5747 49.6506 64.5747 46.7256V37.7256ZM33.3003 42.8994V50.625H25.5V57.6006H33.3003V65.3994H40.1997V57.6006H48V50.625H40.1997V42.8994H33.3003ZM71.9253 77.8506C74.6253 77.8506 76.875 80.1003 76.875 82.8003C76.875 85.5003 74.7003 87.75 71.9253 87.75C69.1503 87.75 66.9756 85.5003 66.9756 82.8003C66.9756 80.1003 69.2253 77.8506 71.9253 77.8506ZM23.9253 78.6006C26.6253 78.6006 28.875 80.8503 28.875 83.5503C28.875 86.2503 26.7003 88.5 23.9253 88.5C21.1503 88.5 18.9756 86.2503 18.9756 83.5503C18.9756 80.8503 21.2253 78.6006 23.9253 78.6006Z" fill="white"/>
</svg>
