<svg width="18" height="18" viewBox="0 0 18 18" fill="none" xmlns="http://www.w3.org/2000/svg">
<path d="M0.533969 0.146667C0.459811 0.148315 0.386862 0.16875 0.323581 0.210937C0.0985808 0.365625 0.0844633 0.674945 0.267276 0.857757L3.83921 4.44369C3.96577 4.57026 4.17671 4.61244 4.33139 4.51401H4.3454C4.58446 4.37338 4.6406 4.05005 4.44373 3.85318L0.871799 0.28125C0.783908 0.193359 0.657565 0.143921 0.533969 0.146667ZM8.85254 3.64554C7.63899 3.66494 6.4278 3.93129 5.30149 4.44369C5.21711 4.48588 5.18915 4.59833 5.25946 4.66864L7.31253 6.72198C7.35472 6.76417 7.43921 6.77818 7.49546 6.73599C8.01577 6.39849 8.64858 6.22974 9.32358 6.31412C10.5048 6.4688 11.4469 7.42489 11.6156 8.60614C11.7 9.28114 11.5312 9.92801 11.1937 10.4343C11.1515 10.4905 11.1655 10.5609 11.2077 10.6172L13.5703 12.9798C13.6125 13.022 13.6968 13.036 13.739 12.9938C14.2734 12.6563 14.7938 12.2483 15.2578 11.7702L17.1986 9.82974C17.3955 9.63287 17.5361 9.36557 17.5501 9.08432C17.5642 8.76088 17.4516 8.45162 17.2266 8.21255L15.2578 6.2438C13.4952 4.47193 11.1693 3.6085 8.85254 3.64554ZM4.30503 4.99274C4.28987 4.99471 4.27514 4.99916 4.26108 5.00619C3.72671 5.34369 3.20628 5.75167 2.74222 6.2298L0.787478 8.17026C0.590603 8.36713 0.449978 8.63443 0.435916 8.91568C0.421853 9.23912 0.534463 9.54838 0.759463 9.78744L2.72821 11.7562C4.4579 13.4999 6.73597 14.3578 9.00003 14.3578C10.2657 14.3578 11.5173 14.0907 12.6986 13.5563C12.783 13.5141 12.8109 13.4017 12.7406 13.3314L10.6172 11.2077C10.575 11.1655 10.4905 11.1515 10.4343 11.1937C9.91399 11.5312 9.28117 11.6999 8.60617 11.6156C7.42492 11.4609 6.4829 10.5048 6.31415 9.32355C6.22978 8.64855 6.39853 8.00167 6.73603 7.49542C6.77821 7.43917 6.76421 7.36875 6.72202 7.3125L4.42972 5.03448C4.39808 5.00284 4.35051 4.9868 4.30503 4.99274ZM7.6641 7.2334C7.55863 7.23164 7.45321 7.27042 7.36884 7.3548L7.34055 7.38281C7.18586 7.5375 7.18608 7.80463 7.35483 7.95932L9.9704 10.5749C10.1251 10.7296 10.3922 10.7439 10.5469 10.5892L10.5749 10.5609C10.7296 10.4062 10.7297 10.1391 10.5609 9.98437L7.95935 7.3548C7.87498 7.27745 7.76956 7.23516 7.6641 7.2334ZM13.859 13.4316C13.7926 13.4319 13.7267 13.4491 13.6687 13.486H13.6547C13.4156 13.6266 13.3595 13.9499 13.5563 14.1468L17.1423 17.7328C17.2267 17.8171 17.3391 17.8594 17.4375 17.8594C17.536 17.8594 17.6484 17.8171 17.7328 17.7328C17.9015 17.564 17.9015 17.2969 17.7328 17.1422L14.1609 13.5563C14.0818 13.4772 13.9697 13.4311 13.859 13.4316Z" fill="#051034"/>
</svg>
